<svg xmlns="http://www.w3.org/2000/svg" viewBox="0 0 640 220" role="img" aria-labelledby="title desc">
  <title id="title">Banner inmobiliario</title>
  <desc id="desc">Edificios, llave y ocupacion para noticias de bienes raices.</desc>
  <defs>
    <linearGradient id="bg" x1="0" y1="0" x2="1" y2="1">
      <stop offset="0" stop-color="#0b1118"/>
      <stop offset="0.5" stop-color="#15190d"/>
      <stop offset="1" stop-color="#241609"/>
    </linearGradient>
  </defs>
  <rect width="640" height="220" fill="url(#bg)"/>
  <g stroke="#72f8e0" opacity="0.18">
    <path d="M0 55h640M0 110h640M0 165h640M80 0v220M160 0v220M240 0v220M320 0v220M400 0v220M480 0v220M560 0v220"/>
  </g>
  <g transform="translate(62 58)">
    <rect x="0" y="38" width="84" height="106" rx="6" fill="#071016" stroke="#68a7ff"/>
    <rect x="110" y="0" width="110" height="144" rx="6" fill="#071016" stroke="#f4c44e"/>
    <rect x="246" y="62" width="88" height="82" rx="6" fill="#071016" stroke="#72f8e0"/>
    <g fill="#a8b7b4">
      <rect x="20" y="58" width="16" height="14"/><rect x="50" y="58" width="16" height="14"/>
      <rect x="20" y="90" width="16" height="14"/><rect x="50" y="90" width="16" height="14"/>
      <rect x="136" y="24" width="18" height="16"/><rect x="176" y="24" width="18" height="16"/>
      <rect x="136" y="58" width="18" height="16"/><rect x="176" y="58" width="18" height="16"/>
      <rect x="136" y="92" width="18" height="16"/><rect x="176" y="92" width="18" height="16"/>
      <rect x="272" y="82" width="16" height="14"/><rect x="304" y="82" width="16" height="14"/>
    </g>
  </g>
  <g transform="translate(446 70)" fill="none" stroke="#f4c44e" stroke-width="10" stroke-linecap="round" stroke-linejoin="round">
    <circle cx="40" cy="40" r="32"/>
    <path d="M64 64 126 126M98 98l22-22M112 112l22-22"/>
  </g>
</svg>
