<svg xmlns="http://www.w3.org/2000/svg" viewBox="0 0 640 220" role="img" aria-labelledby="title desc">
  <title id="title">Banner de riesgo</title>
  <desc id="desc">Alerta critica sobre mercado financiero y liquidez.</desc>
  <defs>
    <linearGradient id="bg" x1="0" y1="0" x2="1" y2="1">
      <stop offset="0" stop-color="#16070c"/>
      <stop offset="0.54" stop-color="#0b1118"/>
      <stop offset="1" stop-color="#1a1110"/>
    </linearGradient>
  </defs>
  <rect width="640" height="220" fill="url(#bg)"/>
  <g opacity="0.22" stroke="#ff5f7d" stroke-width="1">
    <path d="M0 42h640M0 84h640M0 126h640M0 168h640M72 0v220M144 0v220M216 0v220M288 0v220M360 0v220M432 0v220M504 0v220M576 0v220"/>
  </g>
  <path d="M48 156 138 86l86 28 68-58 88 86 58-36 92 42 64-96" fill="none" stroke="#ff5f7d" stroke-width="8" stroke-linecap="round" stroke-linejoin="round"/>
  <g transform="translate(250 34)">
    <path d="M76 4 148 132H4L76 4Z" fill="#2a0b13" stroke="#ff5f7d" stroke-width="5"/>
    <path d="M76 42v45" stroke="#f4c44e" stroke-width="10" stroke-linecap="round"/>
    <circle cx="76" cy="108" r="7" fill="#f4c44e"/>
  </g>
  <g transform="translate(52 44)" font-family="Consolas, monospace" font-weight="900">
    <text x="0" y="0" fill="#ff5f7d" font-size="24">RIESGO</text>
    <text x="0" y="32" fill="#f7f7ef" font-size="18">Liquidez / volatilidad</text>
  </g>
</svg>
